<?xml version="1.0" encoding="UTF-8"?>
<svg width="1195px" height="1022px" viewBox="0 0 1195 1022" version="1.1" xmlns="http://www.w3.org/2000/svg" xmlns:xlink="http://www.w3.org/1999/xlink">
    <!-- Generator: Sketch 53.2 (72643) - https://sketchapp.com -->
    <title>Logo</title>
    <desc>Created with Sketch.</desc>
    <g id="Page-1" stroke="none" stroke-width="1" fill="none" fill-rule="evenodd">
        <g id="Logo" transform="translate(20.000000, 15.000000)">
            <g id="Avocado" transform="translate(177.000000, 0.000000)">
                <g id="Rest" opacity="0.771135603">
                    <path d="M409,992 C453.311825,992 493.807158,982.685487 530.638237,969.802021 C624.145653,937.093242 690.001422,882.3696 738.763529,806.435056 C743.858499,798.500939 768.436643,758.613281 784.01024,710.889894 C798.084478,667.761108 800.521568,616.216639 800.628302,612.295476 C801.109476,594.618223 800.789743,567.643615 798,546.864249 C796.567944,536.197599 792.209952,504.045477 790.178069,494.451743 C784.607547,468.149978 779.532425,437.287779 767.30797,402.436506 C747.010886,344.570595 724.34719,283.028329 691.644537,227.630537 C671.936137,194.24481 652.630632,166.691028 629.382663,135.767822 C604.578505,102.774655 573.849414,74.5533741 546,53.5770069 C500.64513,19.4154114 450.617928,0 398,0 C364.881311,0 333.399301,8.85014583 303.394346,23.6909169 C286.925267,31.836699 269.782124,42.2759824 253,55.5770069 C236.975068,68.2779026 218.037635,85.6098348 202.171875,102 C156.83516,148.835214 120.863828,208.93229 89.484375,266.648438 C69.4659541,303.468268 43.2526772,366.382273 30.7199698,402.436506 C11.8907266,456.604683 5.68490943,483.407234 3.13215664,539.465463 C2.3504445,556.631794 -0.746864625,582.449248 1.07890671,615.474612 C2.5217411,641.573243 7.03909418,672.173293 18.2034437,706.5625 C24.763014,726.767745 32.1331181,745.625051 40.3983908,763.303491 C59.9686504,805.161958 84.557523,840.411309 115.288497,871.295896 C192.48969,948.882994 297.196749,992 409,992 Z" id="Outer" stroke="#231F20" stroke-width="30" fill="#86BA54"></path>
                    <path d="M391.5274,910.841685 C426.584124,910.841685 455.623058,910.841685 503.267983,896.337586 C578.176369,873.533927 638.54752,817.861188 677.125026,754.021057 C691.081286,730.925488 705.099539,697.321157 713.20549,668.336482 C718.636615,648.916258 719.826994,619.079999 719.826994,591 C719.826994,563.083854 715.854344,534.235459 713.20549,507.285923 C709.847411,473.120706 701.657069,453.281904 690.999421,418.743324 C675.834837,369.598976 649.740846,308.85372 623.868567,262.279366 C608.276523,234.211125 596.057032,215.437077 577.664704,189.43914 C545.134092,143.456444 505.50609,110.493971 464.522182,91.9107574 C440.520396,81.0276981 416.342944,78.0618003 391.5274,78.0618003 C366.736975,78.0618003 346.720064,86.0418338 323.413308,97.5357523 C295.655409,111.224788 271.633878,133.745984 244.64711,163.372189 C208.779558,202.747763 177.842833,259.045164 153.463706,305.178223 C138.132132,334.190435 129.536625,353.692056 121.889629,375.645587 C117.376942,388.600925 112.634158,403.53744 108.54501,418.743324 C102.46913,441.337061 89.4818956,479.576164 86.729546,507.285923 C84.831238,526.397469 80.3224221,557.679044 80.3224221,576.11585 C80.3224221,584.180726 73.8405125,623.016723 86.729546,668.336482 C103.153791,726.08657 130.364972,774.596098 164.945447,811.527784 C226.022167,876.757258 303.075713,910.841685 391.5274,910.841685 Z" id="Inner" fill="#CED870"></path>
                </g>
                <circle id="Pitt" stroke="#231F20" stroke-width="30" fill="#716559" cx="400.37234" cy="591.555172" r="144"></circle>
            </g>
            <g id="Label" transform="translate(0.000000, 313.000000)">
                <g id="bg">
                    <path d="M46,-10 L1109,-10 C1139.92795,-10 1165,15.072054 1165,46 L1165,137 C1165,167.927946 1139.92795,193 1109,193 L46,193 C15.072054,193 -10,167.927946 -10,137 L-10,46 C-10,15.072054 15.072054,-10 46,-10 Z" id="Outer" stroke="#303030" stroke-width="20" fill="#DEDEDE" stroke-linecap="round" stroke-linejoin="bevel"></path>
                    <path d="M48,6 L1103,6 C1126.74824,6 1146,25.2517558 1146,49 L1146,133 C1146,156.748244 1126.74824,176 1103,176 L48,176 C24.2517558,176 5,156.748244 5,133 L5,87.5 L5,49 C5,25.2517558 24.2517558,6 48,6 Z" id="Inner" fill="#303030"></path>
                </g>
                <text id="DevRel-Collective" font-family="Futura-Bold, Futura" font-size="88" font-weight="bold" line-spacing="0.699999988" fill="#FFFFFF">
                    <tspan x="175" y="215.3">DevRel Collective</tspan>
                </text>
            </g>
        </g>
    </g>
</svg>